<svg width="49" height="48" viewBox="0 0 49 48" fill="none" xmlns="http://www.w3.org/2000/svg">
<path d="M30.4928 10.0699V8.00999H28.5268V10.0699H30.4928ZM20.4709 10.0699V8.00999H18.5048V10.0699H20.4709ZM31.5238 4.35564C34.8325 6.72794 36.4868 9.94339 36.4868 14.002H12.5108C12.5108 9.88079 14.1345 6.66533 17.382 4.35564L14.7586 1.73227C14.2591 1.23277 14.2591 0.764569 14.7586 0.327672C15.2581 -0.109224 15.7263 -0.109224 16.1632 0.327672L19.1602 3.32468C20.7839 2.45088 22.5634 2.01399 24.4988 2.01399C26.3716 2.01399 28.1199 2.45088 29.7436 3.32468L32.7406 0.327672C33.2401 -0.109224 33.7083 -0.109224 34.1452 0.327672C34.5821 0.764569 34.5821 1.23277 34.1452 1.73227L31.5238 4.35564ZM41.4499 16.0639C42.2611 16.0639 42.9637 16.3603 43.5578 16.953C44.1518 17.5458 44.4482 18.2484 44.4469 19.0609V33.015C44.4469 33.8888 44.1505 34.6067 43.5578 35.1688C42.965 35.7309 42.2624 36.012 41.4499 36.012C40.6374 36.012 39.9347 35.7309 39.342 35.1688C38.7492 34.6067 38.4529 33.8888 38.4529 33.015V19.0609C38.4529 18.2498 38.7492 17.5471 39.342 16.953C39.9347 16.359 40.6374 16.0626 41.4499 16.0639ZM7.54778 16.0639C8.35897 16.0639 9.0616 16.3603 9.65568 16.953C10.2497 17.5458 10.5461 18.2484 10.5448 19.0609V33.015C10.5448 33.8888 10.2484 34.6067 9.65568 35.1688C9.06294 35.7309 8.36031 36.012 7.54778 36.012C6.73526 36.012 6.03263 35.7309 5.43989 35.1688C4.84715 34.6067 4.55078 33.8888 4.55078 33.015V19.0609C4.55078 18.2498 4.84715 17.5471 5.43989 16.953C6.03263 16.359 6.73526 16.0626 7.54778 16.0639ZM12.5108 36.012V16.0639H36.4868V36.012C36.4868 36.5741 36.2997 37.0423 35.9254 37.4166C35.5511 37.7909 35.0829 37.978 34.5208 37.978H32.4609V45.003C32.4609 45.8768 32.1645 46.5947 31.5718 47.1568C30.979 47.7189 30.2764 48 29.4639 48C28.6513 48 27.9487 47.7189 27.356 47.1568C26.7632 46.5947 26.4669 45.8768 26.4669 45.003V37.978H22.5328V45.003C22.5328 45.8768 22.2364 46.5947 21.6437 47.1568C21.0509 47.7189 20.3483 48 19.5358 48C18.7233 48 18.0206 47.7189 17.4279 47.1568C16.8352 46.5947 16.5388 45.8768 16.5388 45.003V37.978H14.4789C13.9167 37.978 13.4486 37.7909 13.0743 37.4166C12.7 37.0423 12.5128 36.5741 12.5128 36.012H12.5108Z" fill="#333333"/>
</svg>
