<svg width="17" height="16" viewBox="0 0 17 16" fill="none" xmlns="http://www.w3.org/2000/svg">
<g id="appstore 1">
<path id="Vector" d="M3.01563 12.9205L2.94532 12.9909C2.66407 13.4128 2.8047 13.9753 3.22657 14.1862C3.64845 14.3972 4.21095 14.3269 4.42189 13.905L4.49221 13.8347L5.33596 12.358H3.9297C3.57814 12.358 3.22657 12.569 3.01563 12.9205ZM8.28911 9.75633H6.88285L10.8204 3.006C11.1016 2.5841 10.961 2.02158 10.5391 1.81063C10.1172 1.59968 9.55474 1.67 9.3438 2.09189L9.27349 2.16221L8.50004 3.49821L7.7266 2.16221C7.51566 1.67 6.95316 1.52936 6.53128 1.74031C6.1094 1.95126 5.89847 2.44347 6.17972 2.93568C6.17972 2.93568 6.17972 3.006 6.25003 3.006L7.51566 5.25611L4.91408 9.75633H2.31251C1.82031 9.75633 1.46875 10.1782 1.46875 10.6001C1.46875 11.0923 1.89063 11.5142 2.31251 11.5142H10.0469L9.41411 10.4595C9.20317 10.0376 8.7813 9.75633 8.28911 9.75633ZM14.6876 9.75633H12.1563L10.0469 6.0999L9.62505 6.80306C9.27349 7.4359 9.27349 8.2797 9.62505 8.91254L12.5079 13.905C12.7188 14.3269 13.2813 14.5378 13.7032 14.3269C14.1251 14.1159 14.336 13.5534 14.1251 13.1315C14.1251 13.1315 14.1251 13.0612 14.0548 13.0612L13.1407 11.5142H14.6173C15.1095 11.5142 15.461 11.0923 15.461 10.6704C15.5313 10.1782 15.1095 9.75633 14.6876 9.75633Z" fill="#333333"/>
</g>
</svg>
