<svg width="49" height="48" viewBox="0 0 49 48" fill="none" xmlns="http://www.w3.org/2000/svg">
<path d="M9.23594 37.9999L9.03594 38.1999C8.23594 39.3999 8.63594 40.9999 9.83594 41.5999C11.0359 42.1999 12.6359 41.9999 13.2359 40.7999L13.4359 40.5999L15.8359 36.3999H11.8359C10.8359 36.3999 9.83594 36.9999 9.23594 37.9999ZM24.2359 28.9999H20.2359L31.4359 9.79993C32.2359 8.59993 31.8359 6.99993 30.6359 6.39993C29.4359 5.79993 27.8359 5.99993 27.2359 7.19993L27.0359 7.39993L24.8359 11.1999L22.6359 7.39993C22.0359 5.99993 20.4359 5.59993 19.2359 6.19993C18.0359 6.79993 17.4359 8.19993 18.2359 9.59993C18.2359 9.59993 18.2359 9.79993 18.4359 9.79993L22.0359 16.1999L14.6359 28.9999H7.23594C5.83594 28.9999 4.83594 30.1999 4.83594 31.3999C4.83594 32.7999 6.03594 33.9999 7.23594 33.9999H29.2359L27.4359 30.9999C26.8359 29.7999 25.6359 28.9999 24.2359 28.9999ZM42.4359 28.9999H35.2359L29.2359 18.5999L28.0359 20.5999C27.0359 22.3999 27.0359 24.7999 28.0359 26.5999L36.2359 40.7999C36.8359 41.9999 38.4359 42.5999 39.6359 41.9999C40.8359 41.3999 41.4359 39.7999 40.8359 38.5999C40.8359 38.5999 40.8359 38.3999 40.6359 38.3999L38.0359 33.9999H42.2359C43.6359 33.9999 44.6359 32.7999 44.6359 31.5999C44.8359 30.1999 43.6359 28.9999 42.4359 28.9999Z" fill="#333333"/>
</svg>
