<svg width="2008" height="878" viewBox="0 0 2008 878" fill="none" xmlns="http://www.w3.org/2000/svg">
<path opacity="0.05" fill-rule="evenodd" clip-rule="evenodd" d="M1290.22 123.093C1454.23 -40.9131 1720.13 -40.9132 1884.14 123.093C2048.15 287.099 2048.15 553.005 1884.14 717.012L1875.02 726.135C1705.97 895.179 1431.9 895.179 1262.85 726.135L716.68 179.963C563.256 26.5392 314.508 26.5392 161.084 179.963L151.961 189.086C3.57561 337.471 3.57561 578.051 151.961 726.436C300.346 874.821 540.926 874.821 689.311 726.436L961.954 453.793L990.239 482.077L717.595 754.72C553.589 918.726 287.683 918.727 123.676 754.72C-40.3296 590.714 -40.3297 324.808 123.676 160.802L132.8 151.679C301.844 -17.366 575.92 -17.3661 744.964 151.679L1291.14 697.85C1444.56 851.274 1693.31 851.274 1846.73 697.85L1855.86 688.727C2004.24 540.342 2004.24 299.762 1855.86 151.377C1707.47 2.9921 1466.89 2.99211 1318.51 151.377L1045.86 424.021L1017.58 395.736L1290.22 123.093Z" fill="url(#paint0_linear_1738_471413)"/>
<defs>
<linearGradient id="paint0_linear_1738_471413" x1="419.418" y1="1022.18" x2="1587.18" y2="-145.582" gradientUnits="userSpaceOnUse">
<stop stop-color="#386AEF"/>
<stop offset="0.5" stop-color="#FF2BA2"/>
<stop offset="1" stop-color="#F77842"/>
</linearGradient>
</defs>
</svg>
