<svg width="46" height="46" viewBox="0 0 46 46" fill="none" xmlns="http://www.w3.org/2000/svg">
<g clip-path="url(#clip0_5338_56889)">
<path d="M23 46C10.2975 46 0 35.7025 0 23C0 10.2975 10.2975 0 23 0C35.7026 0 46 10.2974 46 23C46 35.7025 35.7026 46 23 46Z" fill="#333333"/>
<path fill-rule="evenodd" clip-rule="evenodd" d="M25.681 10.4531H27.313L30.6468 15.7724L33.8818 10.5503L33.9388 10.4531H35.506V20.6302H33.8005L33.8004 13.7115L31.1034 18.0078L31.0145 18.1402H30.1536L27.373 13.7739L27.3731 20.6302H25.681V10.4531ZM11.424 10.4531H13.2108L13.2105 14.5533H17.933L17.9332 10.4531H19.72V20.6302H17.9332L17.933 16.2048H13.2105L13.2108 20.6302H11.424V10.4531ZM28.8591 25.4039C29.3967 25.1565 30.0048 25.033 30.6816 25.033C31.4893 25.033 32.2026 25.2101 32.8192 25.5652C33.3817 25.889 33.8066 26.3268 34.0917 26.8768C34.1027 26.8982 34.1133 26.9198 34.1236 26.9415L34.2185 27.1448L34.0572 27.2542C34.0269 27.2747 33.9961 27.2946 33.965 27.3139L33.0567 27.8645L32.8034 28.01L32.6464 27.7408L32.5867 27.6409C32.4171 27.3733 32.1934 27.1514 31.9145 26.9742C31.5533 26.7447 31.1433 26.63 30.6816 26.63C30.1689 26.63 29.7493 26.7587 29.418 27.0145C29.0941 27.2645 28.9363 27.5702 28.9363 27.9424C28.9363 28.2385 29.0443 28.4842 29.265 28.6885C29.4952 28.9019 29.8672 29.0847 30.3815 29.2329L31.8579 29.667C33.4984 30.1603 34.3349 31.1151 34.3349 32.5155C34.3349 33.1184 34.1857 33.6516 33.8869 34.1116C33.5885 34.5711 33.1692 34.924 32.6319 35.169C32.0995 35.412 31.4895 35.5331 30.8033 35.5331C29.8976 35.5331 29.0891 35.3454 28.3787 34.9694C27.7311 34.6264 27.2549 34.1642 26.9537 33.5841C26.9441 33.5658 26.9323 33.5418 26.9182 33.5121L26.8198 33.2983L26.9189 33.235C26.9984 33.1841 27.0543 33.1498 27.0887 33.1309L28.0153 32.6228C28.038 32.6105 28.0609 32.5985 28.0839 32.5867L28.3005 32.4786L28.4295 32.7029L28.4979 32.8136C28.7166 33.1474 29.0027 33.4067 29.3575 33.5929C29.7935 33.8218 30.2568 33.936 30.7492 33.936C31.2807 33.936 31.7098 33.8113 32.0414 33.5638C32.3638 33.3229 32.5214 33.0178 32.5214 32.6373C32.5214 32.3411 32.4149 32.0947 32.1986 31.8902C31.9726 31.6766 31.6162 31.4942 31.1308 31.3468L29.6417 30.9137C27.9735 30.4197 27.1227 29.4643 27.1227 28.064C27.1227 27.4697 27.2769 26.9384 27.5851 26.4738C27.892 26.0104 28.3176 25.6534 28.8591 25.4039ZM13.7958 27.0846C14.3213 26.7815 14.9026 26.6299 15.5422 26.6299C16.1817 26.6299 16.763 26.7815 17.2885 27.0847C17.814 27.3878 18.2267 27.8048 18.5282 28.3376C18.8301 28.8708 18.981 29.4579 18.981 30.1012C18.981 30.7445 18.8301 31.3315 18.5282 31.8648C18.2267 32.3977 17.814 32.8146 17.2885 33.1178C16.763 33.421 16.1817 33.5725 15.5422 33.5725C14.9026 33.5725 14.3213 33.4209 13.7959 33.1178C13.2704 32.8147 12.8576 32.3977 12.5561 31.8648C12.2542 31.3317 12.1034 30.7447 12.1034 30.1012C12.1034 29.4578 12.2542 28.8707 12.5561 28.3376C12.8576 27.8048 13.2703 27.3878 13.7958 27.0846ZM18.2103 25.5328C17.4055 25.066 16.5154 24.8324 15.5422 24.8324C14.569 24.8324 13.6788 25.066 12.8739 25.5328C12.0697 25.9995 11.4346 26.6358 10.9703 27.4398C10.5058 28.2442 10.2734 29.1322 10.2734 30.1012C10.2734 31.0703 10.5058 31.9583 10.9703 32.7626C11.4346 33.5667 12.0697 34.2029 12.8739 34.6696C13.6788 35.1365 14.569 35.37 15.5422 35.37C16.5154 35.37 17.4055 35.1365 18.2103 34.6696C19.0146 34.2029 19.6497 33.5668 20.114 32.7626C20.5785 31.9584 20.8109 31.0703 20.8109 30.1012C20.8109 29.1322 20.5785 28.2442 20.1141 27.4398C19.6498 26.6357 19.0146 25.9995 18.2103 25.5328ZM11.9478 36.81H19.1319V37.2442V38.3048H11.9478V36.81Z" fill="white"/>
</g>
<defs>
<clipPath id="clip0_5338_56889">
<rect width="46" height="46" fill="white"/>
</clipPath>
</defs>
</svg>
