<svg width="17" height="16" viewBox="0 0 17 16" fill="none" xmlns="http://www.w3.org/2000/svg">
<g clip-path="url(#clip0_5418_58572)">
<path d="M8.50001 16C4.08174 16 0.5 12.4183 0.5 8C0.5 3.58174 4.08172 0 8.5 0C12.9183 0 16.5 3.58172 16.5 7.99999C16.5 12.4183 12.9183 16 8.50001 16Z" fill="#333333"/>
<path fill-rule="evenodd" clip-rule="evenodd" d="M9.43336 3.63477H10.001L11.1606 5.48496L12.2858 3.66856L12.3057 3.63477H12.8508V7.17461H12.2576L12.2575 4.76812L11.3194 6.26248L11.2885 6.30853H10.989L10.0219 4.78981L10.0219 7.17461H9.43336V3.63477ZM4.47442 3.63477H5.0959L5.09582 5.06092H6.73843L6.7385 3.63477H7.35998V7.17461H6.7385L6.73843 5.63535H5.09582L5.0959 7.17461H4.47442V3.63477ZM10.5388 8.83505C10.7258 8.749 10.9373 8.70604 11.1727 8.70604C11.4536 8.70604 11.7018 8.76764 11.9162 8.89112C12.1119 9.00378 12.2597 9.15603 12.3588 9.34734C12.3627 9.35479 12.3664 9.36229 12.3699 9.36984L12.4029 9.44055L12.3468 9.47862C12.3363 9.48576 12.3256 9.49268 12.3148 9.49937L11.9988 9.6909L11.9107 9.7415L11.8561 9.64785L11.8354 9.61312C11.7764 9.52005 11.6986 9.44285 11.6015 9.38123C11.4759 9.3014 11.3333 9.26151 11.1727 9.26151C10.9944 9.26151 10.8484 9.30626 10.7332 9.39524C10.6205 9.48221 10.5656 9.58853 10.5656 9.71798C10.5656 9.82097 10.6032 9.90643 10.68 9.9775C10.7601 10.0517 10.8894 10.1153 11.0683 10.1669L11.5818 10.3179C12.1525 10.4895 12.4434 10.8216 12.4434 11.3086C12.4434 11.5183 12.3915 11.7038 12.2876 11.8638C12.1838 12.0236 12.038 12.1464 11.8511 12.2316C11.6659 12.3161 11.4537 12.3582 11.2151 12.3582C10.9 12.3582 10.6188 12.293 10.3717 12.1622C10.1465 12.0429 9.98081 11.8821 9.87604 11.6803C9.87272 11.674 9.86862 11.6656 9.8637 11.6553L9.82949 11.5809L9.86396 11.5589C9.8916 11.5412 9.91105 11.5292 9.923 11.5227L10.2453 11.346C10.2532 11.3417 10.2611 11.3375 10.2691 11.3334L10.3445 11.2958L10.3894 11.3738L10.4132 11.4123C10.4892 11.5284 10.5888 11.6186 10.7122 11.6834C10.8638 11.763 11.025 11.8027 11.1962 11.8027C11.3811 11.8027 11.5304 11.7593 11.6457 11.6733C11.7578 11.5895 11.8126 11.4833 11.8126 11.351C11.8126 11.248 11.7756 11.1623 11.7004 11.0911C11.6217 11.0169 11.4978 10.9534 11.3289 10.9021L10.811 10.7515C10.2308 10.5797 9.93483 10.2474 9.93483 9.76029C9.93483 9.55356 9.98847 9.36878 10.0957 9.20718C10.2024 9.046 10.3505 8.92183 10.5388 8.83505ZM5.2994 9.41964C5.48218 9.31419 5.68437 9.26149 5.90682 9.26149C6.12926 9.26149 6.33145 9.31419 6.51424 9.41965C6.69702 9.52508 6.84057 9.67012 6.94545 9.85545C7.05045 10.0409 7.10292 10.2451 7.10292 10.4689C7.10292 10.6926 7.05045 10.8968 6.94545 11.0823C6.84057 11.2677 6.69702 11.4127 6.51424 11.5181C6.33145 11.6236 6.12926 11.6763 5.90682 11.6763C5.68437 11.6763 5.48218 11.6236 5.29941 11.5181C5.11662 11.4127 4.97307 11.2677 4.86818 11.0823C4.76318 10.8969 4.71073 10.6927 4.71073 10.4689C4.71073 10.2451 4.76318 10.0409 4.86818 9.85547C4.97307 9.67014 5.11662 9.52508 5.2994 9.41964ZM6.83486 8.87989C6.55493 8.71749 6.24532 8.63627 5.90682 8.63627C5.56833 8.63627 5.25871 8.71749 4.97874 8.87989C4.69899 9.04221 4.47809 9.26351 4.31659 9.54318C4.15504 9.82298 4.07422 10.1318 4.07422 10.4689C4.07422 10.806 4.15504 11.1148 4.31659 11.3946C4.47809 11.6743 4.69899 11.8956 4.97873 12.0579C5.25871 12.2203 5.56833 12.3015 5.90682 12.3015C6.24532 12.3015 6.55493 12.2203 6.83486 12.0579C7.11464 11.8956 7.33554 11.6743 7.49704 11.3946C7.6586 11.1148 7.73941 10.806 7.73941 10.4689C7.73941 10.1318 7.6586 9.82298 7.49705 9.54318C7.33555 9.2635 7.11464 9.04221 6.83486 8.87989ZM4.65595 12.803H7.15476V12.9541V13.323H4.65595V12.803Z" fill="white"/>
</g>
<defs>
<clipPath id="clip0_5418_58572">
<rect width="16" height="16" fill="white" transform="translate(0.5)"/>
</clipPath>
</defs>
</svg>
