<svg width="17" height="16" viewBox="0 0 17 16" fill="none" xmlns="http://www.w3.org/2000/svg">
<g id="linux 1">
<path id="Vector" d="M14.9885 13.3571C14.9045 13.1071 14.1747 12.7933 13.9448 12.2915C13.7148 11.7898 13.9028 11.5197 13.5488 11.2679C13.5014 11.2333 13.4484 11.2132 13.3919 11.2004C13.516 10.872 13.5196 10.4232 13.5032 9.83199C13.4612 8.28658 12.7861 7.3597 12.423 6.90721C11.9887 6.36532 11.839 6.16096 11.5051 5.63549C11.1822 5.12826 10.8391 4.50426 10.8282 3.83282C10.8136 3.03913 10.7862 2.12685 10.4103 1.43899C10.0344 0.751128 9.10017 0.0723893 7.77909 0.437302C6.36677 0.82776 6.3321 2.01555 6.27006 2.89317C6.20802 3.77078 6.60763 4.39479 6.27188 5.50412C5.93614 6.61346 5.35223 7.02581 5.07123 7.5823C4.37602 8.95985 4.22822 9.08209 3.92349 9.79185C3.58592 10.5746 3.83956 11.038 3.83956 11.038L3.85415 11.0763C3.73372 11.2989 3.66986 11.5215 3.52753 11.5817C3.24288 11.7022 2.56774 11.5197 2.33783 11.7496C2.10791 11.9795 2.44913 13.3716 2.29586 13.6289C2.14258 13.8862 2.00391 13.8789 2.00391 14.2967C2.00391 14.7145 2.46373 14.6726 4.25924 15.2783C6.05474 15.8841 6.38867 15.7162 6.80652 15.1944C6.87586 15.1086 6.91965 15.0138 6.9452 14.9134C7.49443 14.8641 8.04914 14.8204 8.37212 14.8185C9.08922 14.8149 10.0928 15.0411 10.5599 15.1561C10.6274 15.3367 10.726 15.4827 10.8574 15.5502C11.2332 15.7381 12.1109 15.718 12.6328 15.2163C13.1547 14.7145 14.4703 14.0686 14.6381 13.9008C14.806 13.7329 15.0706 13.607 14.9885 13.3571ZM7.47254 3.72335C7.45247 3.48615 7.32291 3.30552 7.18241 3.31647C7.04191 3.32741 6.94337 3.52994 6.96345 3.76531C6.97439 3.89668 7.02001 4.01163 7.08205 4.08461C7.06016 4.10468 7.04008 4.12292 7.02001 4.14117C6.91783 4.00798 6.83207 3.7945 6.81017 3.53359C6.77185 3.08292 6.94702 2.72896 7.12949 2.71436H7.14227C7.31926 2.71436 7.5437 3.02454 7.5802 3.46973C7.58749 3.56461 7.58567 3.65401 7.57837 3.73794C7.5437 3.75254 7.50903 3.76896 7.47619 3.78538C7.47436 3.76713 7.47436 3.74524 7.47254 3.72335ZM7.12402 4.04812L7.1222 4.04994C7.1222 4.04812 7.1222 4.04812 7.12402 4.04812ZM6.94885 4.20321C6.9598 4.19408 6.96892 4.18496 6.97987 4.17584C6.96892 4.18678 6.9598 4.19591 6.94885 4.20321ZM6.98534 4.17219C6.99629 4.16307 7.00724 4.15212 7.01819 4.143C7.00724 4.15394 6.99629 4.16307 6.98534 4.17219ZM7.28459 4.60279C7.33021 4.56447 7.374 4.52433 7.41597 4.48601C7.61122 4.30721 7.74259 4.19773 7.91777 4.19043C7.93784 4.18861 7.95791 4.18861 7.97798 4.18861C8.27541 4.18861 8.57648 4.29443 8.98522 4.54622C9.02171 4.56812 9.05638 4.58819 9.08922 4.60826C8.99799 4.69036 8.88851 4.78524 8.7626 4.88742C8.47247 5.12279 8.25716 5.26875 8.14585 5.33079C8.06374 5.2943 7.91412 5.21219 7.6915 5.05893C7.44882 4.89107 7.2627 4.73415 7.21526 4.68672C7.2335 4.65752 7.25722 4.6265 7.28459 4.60279ZM9.03631 3.97149C9.04543 3.97696 9.05638 3.98243 9.0655 3.98791C9.05638 3.98243 9.04726 3.97696 9.03631 3.97149ZM9.06733 3.27815C8.89216 3.26903 8.72611 3.45696 8.69691 3.6978C8.69144 3.73612 8.69144 3.77443 8.69509 3.8091C8.62757 3.78173 8.56006 3.75984 8.49437 3.73977C8.48707 3.65949 8.48707 3.57556 8.49802 3.49163C8.52357 3.27268 8.60933 3.06833 8.73523 2.92054C8.84836 2.78917 8.97974 2.71618 9.10565 2.71618H9.12389C9.21878 2.72166 9.30454 2.76727 9.3757 2.85303C9.50526 3.00629 9.56365 3.25626 9.53263 3.52082C9.50708 3.73977 9.42132 3.94412 9.29542 4.09191C9.28994 4.09738 9.28447 4.10468 9.27899 4.11015L9.26257 4.09921C9.23703 4.08278 9.21148 4.06819 9.18593 4.05359C9.26257 3.97696 9.31731 3.86201 9.33373 3.73064C9.35928 3.4898 9.2425 3.28727 9.06733 3.27815ZM9.14032 4.02987C9.12937 4.0244 9.11842 4.0171 9.10747 4.01163C9.12024 4.0171 9.13119 4.02257 9.14032 4.02987ZM8.88851 3.89485C8.88121 3.89121 8.87209 3.88756 8.86479 3.88391C8.87209 3.88756 8.87938 3.89121 8.88851 3.89485ZM8.81734 3.86201C8.81004 3.85836 8.80457 3.85654 8.79727 3.85289C8.80457 3.85654 8.81187 3.86019 8.81734 3.86201ZM8.38671 3.71422C8.38854 3.71422 8.39036 3.71605 8.39401 3.71605C8.39036 3.71422 8.38854 3.71422 8.38671 3.71422ZM9.32644 4.13935C9.31001 4.13022 9.29359 4.11928 9.27717 4.11015C9.29359 4.1211 9.31001 4.13022 9.32644 4.13935ZM9.45051 4.2105C9.44139 4.20503 9.43044 4.19956 9.41949 4.19408C9.43044 4.19956 9.43957 4.20503 9.45051 4.2105ZM9.96873 13.4538C9.64028 13.753 9.38847 13.8771 9.20418 13.9938C8.85931 14.2128 8.30278 14.346 7.72435 14.2584C7.35758 14.2036 7.02914 14.0504 6.74083 13.8771C6.67149 13.742 6.60216 13.6326 6.55106 13.5669C6.42333 13.3972 5.55478 12.1693 5.01102 11.4029C4.98182 11.246 4.96722 11.0928 4.96905 10.9468C4.98 10.0491 5.22998 8.99999 5.43435 8.75367C5.49639 8.67887 5.95256 7.37977 6.06022 7.10426C6.25911 6.60251 6.56566 6.01318 6.72624 5.66833C6.83572 5.3837 6.85214 5.18482 6.83754 5.0498C7.01819 5.23773 7.86485 5.87633 8.16775 5.87633H8.17322C8.42503 5.87086 9.3903 5.08447 9.72057 4.72321C9.75159 4.85458 9.91399 5.11549 10.018 5.36728C10.3209 6.10075 10.6731 7.47283 11.2369 8.23367C11.2752 8.28658 11.3701 8.46539 11.3883 8.53472C11.6073 9.32111 11.5635 9.91592 11.4285 11.0836C11.3683 11.0636 11.2989 11.0472 11.2077 11.0399C10.8227 11.0088 10.6858 11.1657 10.6858 11.1657C10.6858 11.1657 10.6639 12.0306 10.622 12.8316C10.5891 12.8681 10.5545 12.9046 10.5198 12.9411C10.3227 13.1381 10.1403 13.3078 9.96873 13.4538Z" fill="#333333"/>
</g>
</svg>
