<svg width="49" height="48" viewBox="0 0 49 48" fill="none" xmlns="http://www.w3.org/2000/svg">
<path d="M40.8328 37.7626C40.6172 37.1204 38.7422 36.3142 38.1516 35.0251C37.5609 33.736 38.0437 33.0423 37.1344 32.3954C37.0125 32.3063 36.8766 32.2548 36.7312 32.222C37.05 31.3782 37.0594 30.2251 37.0172 28.7063C36.9094 24.736 35.175 22.3548 34.2422 21.1923C33.1266 19.8001 32.7422 19.2751 31.8844 17.9251C31.0547 16.622 30.1734 15.0188 30.1453 13.2938C30.1078 11.2548 30.0375 8.91103 29.0719 7.14384C28.1062 5.37665 25.7062 3.6329 22.3125 4.5704C18.6844 5.57353 18.5953 8.62509 18.4359 10.8798C18.2766 13.1345 19.3031 14.7376 18.4406 17.5876C17.5781 20.4376 16.0781 21.497 15.3563 22.9267C13.5703 26.4657 13.1906 26.7798 12.4078 28.6032C11.5406 30.6142 12.1922 31.8048 12.1922 31.8048L12.2297 31.9032C11.9203 32.4751 11.7562 33.047 11.3906 33.2017C10.6594 33.511 8.925 33.0423 8.33438 33.6329C7.74375 34.2235 8.62031 37.8001 8.22656 38.461C7.83281 39.122 7.47656 39.1032 7.47656 40.1767C7.47656 41.2501 8.65781 41.1423 13.2703 42.6985C17.8828 44.2548 18.7406 43.8235 19.8141 42.4829C19.9922 42.2626 20.1047 42.0188 20.1703 41.761C21.5813 41.6345 23.0063 41.522 23.8359 41.5173C25.6781 41.5079 28.2563 42.0892 29.4562 42.3845C29.6297 42.8485 29.8828 43.2235 30.2203 43.397C31.1859 43.8798 33.4406 43.8282 34.7812 42.5392C36.1219 41.2501 39.5016 39.5907 39.9328 39.1595C40.3641 38.7282 41.0437 38.4048 40.8328 37.7626ZM21.525 13.0126C21.4734 12.4032 21.1406 11.9392 20.7797 11.9673C20.4188 11.9954 20.1656 12.5157 20.2172 13.1204C20.2453 13.4579 20.3625 13.7532 20.5219 13.9407C20.4656 13.9923 20.4141 14.0392 20.3625 14.086C20.1 13.7438 19.8797 13.1954 19.8234 12.5251C19.725 11.3673 20.175 10.4579 20.6437 10.4204H20.6766C21.1313 10.4204 21.7078 11.2173 21.8016 12.361C21.8203 12.6048 21.8156 12.8345 21.7969 13.0501C21.7078 13.0876 21.6187 13.1298 21.5344 13.172C21.5297 13.1251 21.5297 13.0688 21.525 13.0126ZM20.6297 13.847L20.625 13.8517C20.625 13.847 20.625 13.847 20.6297 13.847ZM20.1797 14.2454C20.2078 14.222 20.2313 14.1985 20.2594 14.1751C20.2313 14.2032 20.2078 14.2267 20.1797 14.2454ZM20.2734 14.1657C20.3016 14.1423 20.3297 14.1142 20.3578 14.0907C20.3297 14.1188 20.3016 14.1423 20.2734 14.1657ZM21.0422 15.272C21.1594 15.1735 21.2719 15.0704 21.3797 14.972C21.8813 14.5126 22.2188 14.2313 22.6688 14.2126C22.7203 14.2079 22.7719 14.2079 22.8234 14.2079C23.5875 14.2079 24.3609 14.4798 25.4109 15.1267C25.5047 15.1829 25.5938 15.2345 25.6781 15.286C25.4438 15.497 25.1625 15.7407 24.8391 16.0032C24.0938 16.6079 23.5406 16.9829 23.2547 17.1423C23.0438 17.0485 22.6594 16.8376 22.0875 16.4438C21.4641 16.0126 20.9859 15.6095 20.8641 15.4876C20.9109 15.4126 20.9719 15.3329 21.0422 15.272ZM25.5422 13.6501C25.5656 13.6642 25.5938 13.6782 25.6172 13.6923C25.5938 13.6782 25.5703 13.6642 25.5422 13.6501ZM25.6219 11.8688C25.1719 11.8454 24.7453 12.3282 24.6703 12.947C24.6562 13.0454 24.6562 13.1438 24.6656 13.2329C24.4922 13.1626 24.3188 13.1063 24.15 13.0548C24.1313 12.8485 24.1313 12.6329 24.1594 12.4173C24.225 11.8548 24.4453 11.3298 24.7687 10.9501C25.0594 10.6126 25.3969 10.4251 25.7203 10.4251H25.7672C26.0109 10.4392 26.2313 10.5563 26.4141 10.7767C26.7469 11.1704 26.8969 11.8126 26.8172 12.4923C26.7516 13.0548 26.5312 13.5798 26.2078 13.9595C26.1938 13.9735 26.1797 13.9923 26.1656 14.0063L26.1234 13.9782C26.0578 13.936 25.9922 13.8985 25.9266 13.861C26.1234 13.6642 26.2641 13.3688 26.3062 13.0313C26.3719 12.4126 26.0719 11.8923 25.6219 11.8688ZM25.8094 13.8001C25.7812 13.786 25.7531 13.7673 25.725 13.7532C25.7578 13.7673 25.7859 13.7813 25.8094 13.8001ZM25.1625 13.4532C25.1438 13.4438 25.1203 13.4345 25.1016 13.4251C25.1203 13.4345 25.1391 13.4438 25.1625 13.4532ZM24.9797 13.3688C24.9609 13.3595 24.9469 13.3548 24.9281 13.3454C24.9469 13.3548 24.9656 13.3642 24.9797 13.3688ZM23.8734 12.9892C23.8781 12.9892 23.8828 12.9938 23.8922 12.9938C23.8828 12.9892 23.8781 12.9892 23.8734 12.9892ZM26.2875 14.0813C26.2453 14.0579 26.2031 14.0298 26.1609 14.0063C26.2031 14.0345 26.2453 14.0579 26.2875 14.0813ZM26.6063 14.2642C26.5828 14.2501 26.5547 14.236 26.5266 14.222C26.5547 14.236 26.5781 14.2501 26.6063 14.2642ZM27.9375 38.011C27.0938 38.7798 26.4469 39.0985 25.9734 39.3985C25.0875 39.961 23.6578 40.3032 22.1719 40.0782C21.2297 39.9376 20.3859 39.5438 19.6453 39.0985C19.4672 38.7517 19.2891 38.4704 19.1578 38.3017C18.8297 37.8657 16.5984 34.711 15.2016 32.7423C15.1266 32.3392 15.0891 31.9454 15.0938 31.5704C15.1219 29.2642 15.7641 26.5688 16.2891 25.936C16.4484 25.7438 17.6203 22.4063 17.8969 21.6985C18.4078 20.4095 19.1953 18.8954 19.6078 18.0095C19.8891 17.2782 19.9312 16.7673 19.8937 16.4204C20.3578 16.9032 22.5328 18.5438 23.3109 18.5438H23.325C23.9719 18.5298 26.4516 16.5095 27.3 15.5813C27.3797 15.9188 27.7969 16.5892 28.0641 17.236C28.8422 19.1204 29.7469 22.6454 31.1953 24.6001C31.2938 24.736 31.5375 25.1954 31.5844 25.3735C32.1469 27.3938 32.0344 28.922 31.6875 31.922C31.5328 31.8704 31.3547 31.8282 31.1203 31.8095C30.1313 31.7298 29.7797 32.1329 29.7797 32.1329C29.7797 32.1329 29.7234 34.3548 29.6156 36.4126C29.5312 36.5063 29.4422 36.6001 29.3531 36.6938C28.8469 37.2001 28.3781 37.636 27.9375 38.011Z" fill="#333333"/>
</svg>
