<svg width="25" height="24" viewBox="0 0 25 24" fill="none" xmlns="http://www.w3.org/2000/svg">
<g clip-path="url(#clip0_2281_481105)">
<path d="M10.0585 3.5625H15.2566C15.5419 3.5625 15.7732 3.79378 15.7732 4.07908C15.7732 4.15717 15.7555 4.23424 15.7214 4.30449L8.65063 18.8846C8.19002 19.8344 7.22724 20.4375 6.17166 20.4375H0.973612C0.688312 20.4375 0.457031 20.2062 0.457031 19.9209C0.457031 19.8428 0.474733 19.7658 0.508806 19.6955L7.57958 5.1154C8.04018 4.16562 9.00297 3.5625 10.0585 3.5625Z" fill="url(#paint0_linear_2281_481105)"/>
<path fill-rule="evenodd" clip-rule="evenodd" d="M15.771 4.07908C15.771 3.79378 15.5398 3.5625 15.2545 3.5625H10.0564C9.50769 3.5625 8.98404 3.72548 8.54297 4.01541L12.2135 11.5334L15.7193 4.30449C15.7533 4.23424 15.771 4.15717 15.771 4.07908Z" fill="url(#paint1_linear_2281_481105)"/>
<path fill-rule="evenodd" clip-rule="evenodd" d="M20.7203 13.0841L23.9267 19.6955C24.0512 19.9522 23.944 20.2612 23.6873 20.3857C23.6171 20.4198 23.54 20.4375 23.4619 20.4375H18.2639C17.2083 20.4375 16.2455 19.8344 15.7849 18.8846L12.2188 11.5312H18.2414C19.2969 11.5312 20.2597 12.1344 20.7203 13.0841Z" fill="url(#paint2_linear_2281_481105)"/>
</g>
<defs>
<linearGradient id="paint0_linear_2281_481105" x1="8.58646" y1="2.35714" x2="-2.24866" y2="20.6447" gradientUnits="userSpaceOnUse">
<stop stop-color="#391EF0"/>
<stop offset="1" stop-color="#5DABFF"/>
</linearGradient>
<linearGradient id="paint1_linear_2281_481105" x1="16.6542" y1="3.5625" x2="8.26708" y2="3.5625" gradientUnits="userSpaceOnUse">
<stop stop-color="#37B2FC"/>
<stop offset="1" stop-color="#2052FC"/>
</linearGradient>
<linearGradient id="paint2_linear_2281_481105" x1="21.8828" y1="19.2321" x2="14.6127" y2="9.75024" gradientUnits="userSpaceOnUse">
<stop stop-color="#FFAA8F"/>
<stop offset="1" stop-color="#EE00FF"/>
</linearGradient>
<clipPath id="clip0_2281_481105">
<rect width="24" height="24" fill="white" transform="translate(0.269531)"/>
</clipPath>
</defs>
</svg>
