<svg width="17" height="16" viewBox="0 0 17 16" fill="none" xmlns="http://www.w3.org/2000/svg">
<g id="macos 1">
<path id="Vector" d="M15.0104 11.728C14.9864 11.792 14.6744 12.888 13.9064 14.008C13.2344 14.984 12.5464 15.96 11.4584 15.976C10.3864 15.992 10.0424 15.336 8.81836 15.336C7.59436 15.336 7.21036 15.96 6.19436 15.992C5.14636 16.032 4.33836 14.928 3.66636 13.96C2.29836 11.992 1.24236 8.352 2.65836 5.92C3.35436 4.704 4.61036 3.928 5.97036 3.904C6.99436 3.888 7.97836 4.6 8.60236 4.6C9.24236 4.6 10.4264 3.736 11.6744 3.864C12.1944 3.888 13.6584 4.08 14.5944 5.448C14.5224 5.496 12.8504 6.488 12.8664 8.496C12.8824 10.92 14.9864 11.72 15.0104 11.728ZM10.8504 2.568C11.4104 1.88 11.7864 0.936 11.6824 0C10.8824 0.032 9.89836 0.536 9.32236 1.216C8.81036 1.808 8.35436 2.768 8.48236 3.696C9.37036 3.744 10.2904 3.224 10.8504 2.568Z" fill="#333333"/>
</g>
</svg>
