<svg width="49" height="48" viewBox="0 0 49 48" fill="none" xmlns="http://www.w3.org/2000/svg">
<path d="M44.3729 35.184C44.3009 35.376 43.3649 38.664 41.0609 42.024C39.0449 44.952 36.9809 47.88 33.7169 47.928C30.5009 47.976 29.4689 46.008 25.7969 46.008C22.1249 46.008 20.9729 47.88 17.9249 47.976C14.7809 48.096 12.3569 44.784 10.3409 41.88C6.23686 35.976 3.06886 25.056 7.31686 17.76C9.40486 14.112 13.1729 11.784 17.2529 11.712C20.3249 11.664 23.2769 13.8 25.1489 13.8C27.0689 13.8 30.6209 11.208 34.3649 11.592C35.9249 11.664 40.3169 12.24 43.1249 16.344C42.9089 16.488 37.8929 19.464 37.9409 25.488C37.9889 32.76 44.3009 35.16 44.3729 35.184ZM31.8929 7.704C33.5729 5.64 34.7009 2.808 34.3889 0C31.9889 0.096 29.0369 1.608 27.3089 3.648C25.7729 5.424 24.4049 8.304 24.7889 11.088C27.4529 11.232 30.2129 9.672 31.8929 7.704Z" fill="#333333"/>
</svg>
