<svg width="484" height="200" viewBox="0 0 484 200" fill="none" xmlns="http://www.w3.org/2000/svg">
<g clip-path="url(#clip0_2154_507417)">
<rect width="484" height="200" fill="url(#paint0_linear_2154_507417)"/>
<g filter="url(#filter0_bd_2154_507417)">
<rect x="327.5" y="262" width="230" height="114" rx="12" transform="rotate(-90 327.5 262)" fill="url(#paint1_linear_2154_507417)" shape-rendering="crispEdges"/>
<rect x="327" y="262.5" width="231" height="115" rx="12.5" transform="rotate(-90 327 262.5)" stroke="#0D0D0D" stroke-opacity="0.06" shape-rendering="crispEdges"/>
</g>
<g filter="url(#filter1_d_2154_507417)">
<rect x="331.5" y="256" width="218" height="106" rx="12" transform="rotate(-90 331.5 256)" fill="url(#paint2_linear_2154_507417)" shape-rendering="crispEdges"/>
</g>
<path d="M349.5 64C349.5 63.1716 350.172 62.5 351 62.5H360C360.828 62.5 361.5 63.1716 361.5 64V73C361.5 73.8284 360.828 74.5 360 74.5H351C350.172 74.5 349.5 73.8284 349.5 73V64Z" fill="#3B64FC"/>
<path d="M349.5 73H361.5C361.5 73.8284 360.828 74.5 360 74.5H351C350.172 74.5 349.5 73.8284 349.5 73Z" fill="#1050E7"/>
<path d="M355.5 73H361.5C361.5 73.8284 360.828 74.5 360 74.5H355.5V73Z" fill="#5589FF"/>
<path d="M352.006 64.75H353.157L353.915 68.2153L354.909 65.125H356.09L357.084 68.2153L357.842 64.75H358.993L357.681 70.75H356.717L355.5 66.9632L354.282 70.75H353.318L352.006 64.75Z" fill="white"/>
<g clip-path="url(#clip1_2154_507417)">
<rect x="348.5" y="82.5" width="72" height="48" rx="4" fill="#C5D4EC" fill-opacity="0.4"/>
<path d="M395.04 99.1567C398.22 95.6053 403.78 95.6053 406.96 99.1568L439.5 135.5H362.5L395.04 99.1567Z" fill="url(#paint3_linear_2154_507417)" fill-opacity="0.6"/>
<circle cx="365.5" cy="97.5" r="7" fill="url(#paint4_linear_2154_507417)" fill-opacity="0.6"/>
</g>
<rect x="348.5" y="140.5" width="72" height="8" rx="3" fill="#C5D4EC" fill-opacity="0.4"/>
<rect x="348.5" y="154.5" width="72" height="8" rx="3" fill="#C5D4EC" fill-opacity="0.4"/>
<rect x="348.5" y="168.5" width="48" height="8" rx="3" fill="#C5D4EC" fill-opacity="0.4"/>
<g filter="url(#filter2_b_2154_507417)">
<path d="M7.34351e-06 200L0 32L294 32C300.627 32 306 37.3726 306 44L306 200L7.34351e-06 200Z" fill="url(#paint5_linear_2154_507417)"/>
<path d="M-0.499993 200L-0.499993 200.5L7.3648e-06 200.5L306 200.5L306.5 200.5L306.5 200L306.5 44C306.5 37.0965 300.904 31.5 294 31.5L-2.18497e-08 31.5L-0.5 31.5L-0.5 32L-0.499993 200Z" stroke="#0D0D0D" stroke-opacity="0.06"/>
</g>
<path d="M161 45.25C161 43.7312 162.231 42.5 163.75 42.5H180.25C181.769 42.5 183 43.7312 183 45.25V61.75C183 63.2688 181.769 64.5 180.25 64.5H163.75C162.231 64.5 161 63.2688 161 61.75V45.25Z" fill="#3B64FC"/>
<path d="M161 60.8334H183V61.75C183 63.2688 181.769 64.5 180.25 64.5H163.75C162.231 64.5 161 63.2688 161 61.75V60.8334Z" fill="#1050E7"/>
<path d="M179.334 42.5H180.251C181.769 42.5 183.001 43.7312 183.001 45.25V61.75C183.001 63.2688 181.769 64.5 180.251 64.5H179.334V42.5Z" fill="#5589FF"/>
<path d="M179.334 64.5H180.251C181.769 64.5 183.001 63.2688 183.001 61.75V60.8334H179.334V64.5Z" fill="#476DFF"/>
<path d="M166.832 56.25L164.666 47.0834H166.404L167.951 54.3635L169.394 47.4532H170.956L172.551 54.4205L173.933 47.0834H175.666L173.697 56.25H171.52L170.215 50.6952L168.99 56.25H166.832Z" fill="white"/>
<rect x="172" y="51.5" width="11" height="13" rx="2" fill="white"/>
<rect x="174.5" y="54" width="6" height="8" rx="1" stroke="#2572E6"/>
<rect x="176" y="59.5" width="3" height="1" rx="0.5" fill="#2572E6"/>
<path d="M203.5 54.5H212.5" stroke="#757575" stroke-opacity="0.5" stroke-linecap="round" stroke-linejoin="round"/>
<path d="M244.2 50.5H235.8C235.634 50.5 235.5 50.6343 235.5 50.8V59.2C235.5 59.3657 235.634 59.5 235.8 59.5H244.2C244.366 59.5 244.5 59.3657 244.5 59.2V50.8C244.5 50.6343 244.366 50.5 244.2 50.5Z" stroke="#757575" stroke-opacity="0.5" stroke-linejoin="round"/>
<path d="M267.5 50.5L276.5 59.5M276.5 50.5L267.5 59.5" stroke="#757575" stroke-opacity="0.5" stroke-linecap="round" stroke-linejoin="round"/>
<g filter="url(#filter3_d_2154_507417)">
<mask id="path-34-outside-1_2154_507417" maskUnits="userSpaceOnUse" x="-1" y="71" width="280" height="132" fill="black">
<rect fill="white" x="-1" y="71" width="280" height="132"/>
<path fill-rule="evenodd" clip-rule="evenodd" d="M173.536 72.7196C172.737 71.7601 171.263 71.7601 170.464 72.7196L167 76.8759L0 76.8759V201.876H278V84.8759C278 80.4576 274.418 76.8759 270 76.8759L177 76.8759L173.536 72.7196Z"/>
</mask>
<path fill-rule="evenodd" clip-rule="evenodd" d="M173.536 72.7196C172.737 71.7601 171.263 71.7601 170.464 72.7196L167 76.8759L0 76.8759V201.876H278V84.8759C278 80.4576 274.418 76.8759 270 76.8759L177 76.8759L173.536 72.7196Z" fill="white" shape-rendering="crispEdges"/>
<path d="M170.464 72.7196L169.695 72.0794V72.0794L170.464 72.7196ZM173.536 72.7196L172.768 73.3598V73.3598L173.536 72.7196ZM167 76.8759V77.8759H167.468L167.768 77.5161L167 76.8759ZM0 76.8759L3.71191e-08 75.8759H-1V76.8759H0ZM0 201.876H-1V202.876H0V201.876ZM278 201.876V202.876H279V201.876H278ZM270 76.8759V75.8759V76.8759ZM177 76.8759L176.232 77.5161L176.532 77.8759H177V76.8759ZM171.232 73.3598C171.632 72.8801 172.368 72.8801 172.768 73.3598L174.305 72.0794C173.105 70.6402 170.895 70.6402 169.695 72.0794L171.232 73.3598ZM167.768 77.5161L171.232 73.3598L169.695 72.0794L166.232 76.2357L167.768 77.5161ZM-3.71191e-08 77.8759L167 77.8759V75.8759L3.71191e-08 75.8759L-3.71191e-08 77.8759ZM1 201.876V76.8759H-1V201.876H1ZM278 200.876H0V202.876H278V200.876ZM277 84.8759V201.876H279V84.8759H277ZM270 77.8759C273.866 77.8759 277 81.0099 277 84.8759H279C279 79.9053 274.971 75.8759 270 75.8759V77.8759ZM177 77.8759L270 77.8759V75.8759L177 75.8759V77.8759ZM172.768 73.3598L176.232 77.5161L177.768 76.2357L174.305 72.0794L172.768 73.3598Z" fill="#0D0D0D" fill-opacity="0.06" mask="url(#path-34-outside-1_2154_507417)"/>
</g>
<path fill-rule="evenodd" clip-rule="evenodd" d="M49.435 98.375H48.3587C48.1606 98.375 48 98.5317 48 98.725V110.275C48 110.468 48.1606 110.625 48.3587 110.625H48.8972H49.435H49.5704C49.6993 110.625 49.8229 110.579 49.914 110.497L54.7269 106.162L59.5399 110.497C59.6309 110.579 59.7545 110.625 59.8834 110.625H60.0174H60.5566H61.0937C61.2918 110.625 61.4524 110.468 61.4524 110.275V98.725C61.4524 98.5317 61.2918 98.375 61.0937 98.375H60.0174C59.8193 98.375 59.6587 98.5317 59.6587 98.725V108.066L55.355 104.191C55.2639 104.109 55.1403 104.062 55.0115 104.062H54.4423C54.3135 104.062 54.1899 104.109 54.0988 104.191L49.7937 108.068V98.725C49.7937 98.5317 49.6331 98.375 49.435 98.375ZM80.2882 98.375C78.3069 98.375 76.7007 99.942 76.7007 101.875C76.7007 103.808 78.3069 105.375 80.2882 105.375H85.221C86.2117 105.375 87.0147 106.158 87.0147 107.125C87.0147 108.092 86.2117 108.875 85.221 108.875H77.6872C77.4891 108.875 77.3285 109.032 77.3285 109.225V110.275C77.3285 110.468 77.4891 110.625 77.6872 110.625H85.221C87.2023 110.625 88.8085 109.058 88.8085 107.125C88.8085 105.192 87.2023 103.625 85.221 103.625H80.2882C79.2975 103.625 78.4944 102.841 78.4944 101.875C78.4944 100.909 79.2975 100.125 80.2882 100.125H87.8219C88.0201 100.125 88.1807 99.9683 88.1807 99.775V98.725C88.1807 98.5317 88.0201 98.375 87.8219 98.375H80.2882ZM71.7679 100.125H65.0413V103.625H71.7679C72.7586 103.625 73.5616 102.841 73.5616 101.875C73.5616 100.909 72.7586 100.125 71.7679 100.125ZM63.2476 98.725V99.25V100.125V103.625V105.375V110.275C63.2476 110.468 63.4082 110.625 63.6063 110.625H64.6826C64.8807 110.625 65.0413 110.468 65.0413 110.275V105.375H71.7679C73.7492 105.375 75.3554 103.808 75.3554 101.875C75.3554 99.942 73.7492 98.375 71.7679 98.375H63.6063C63.4082 98.375 63.2476 98.5317 63.2476 98.725Z" fill="#C5D4EC" fill-opacity="0.5"/>
<path fill-rule="evenodd" clip-rule="evenodd" d="M98.6075 97.7727C98.6461 97.6135 98.7912 97.5 98.9588 97.5H100.212C100.387 97.5 100.515 97.66 100.473 97.8252C100.43 97.9905 100.389 98.1509 100.349 98.3069L100.332 98.375H103.92C104.069 98.375 104.189 98.4925 104.189 98.6375V99.775C104.189 99.92 104.069 100.038 103.92 100.038H99.8793C99.795 100.31 99.7063 100.571 99.6078 100.825H102.618C103.113 100.825 103.515 101.217 103.515 101.7V106.379C103.515 107.108 103.441 107.835 103.294 108.55C103.266 108.688 103.142 108.788 102.998 108.788H101.611C101.489 108.788 101.402 108.671 101.441 108.557L101.627 107.926C101.687 107.75 101.733 107.526 101.763 107.3H99.3892V108.525C99.3892 108.67 99.2688 108.788 99.1201 108.788H97.8645C97.7159 108.788 97.5955 108.67 97.5955 108.525V103.188H96.6397C96.4298 103.188 96.3004 102.963 96.4059 102.786C97.1668 101.785 97.617 100.952 97.956 100.038H97.5074C97.3587 100.038 97.2383 99.92 97.2383 99.775V98.6375C97.2383 98.4925 97.3587 98.375 97.5074 98.375H98.4579C98.5074 98.1817 98.5569 97.9814 98.6075 97.7727ZM99.3892 105.9H101.811V104.937H99.3892V105.9ZM101.811 102.488V103.537H99.3892V102.488H101.811ZM91.4086 97.9375C90.9132 97.9375 90.5117 98.3293 90.5117 98.8125V110.8C90.5117 110.945 90.6322 111.062 90.7808 111.062H91.857C92.0056 111.062 92.1261 110.945 92.1261 110.8V99.6H92.8436V104.985C92.8436 105.363 92.781 106.088 92.6582 106.446L92.4743 107.069C92.4353 107.183 92.5218 107.3 92.6443 107.3H93.9408C94.0851 107.3 94.2093 107.201 94.2376 107.063C94.3842 106.348 94.458 105.62 94.458 104.891V98.8125C94.458 98.3293 94.0564 97.9375 93.5611 97.9375H91.4086ZM95.354 103.625C95.2054 103.625 95.085 103.743 95.085 103.887V110.188C95.085 110.671 95.4865 111.062 95.9818 111.062H103.747C103.881 111.062 104.003 110.99 104.065 110.876L104.723 109.656C104.785 109.54 104.699 109.4 104.564 109.4H96.6993V103.887C96.6993 103.743 96.5789 103.625 96.4303 103.625H95.354ZM108.987 104.433L110.146 102.72C110.264 102.545 110.136 102.312 109.921 102.312H108.421C108.27 102.312 108.129 102.386 108.046 102.509L105.495 106.28C105.377 106.455 105.505 106.688 105.719 106.688H107.193V110.8C107.193 110.945 107.314 111.062 107.462 111.062H108.718C108.866 111.062 108.987 110.945 108.987 110.8V104.433ZM118.613 100.125C118.745 100.125 118.852 100.007 118.852 99.8625V98.6375C118.852 98.4925 118.745 98.375 118.613 98.375H111.917C111.785 98.375 111.677 98.4925 111.677 98.6375V99.8625C111.677 100.007 111.785 100.125 111.917 100.125H118.613ZM117.955 103.625H119.504C119.64 103.625 119.749 103.507 119.749 103.363V102.137C119.749 101.993 119.64 101.875 119.504 101.875H111.025C110.89 101.875 110.78 101.993 110.78 102.137V103.363C110.78 103.507 110.89 103.625 111.025 103.625H115.982V109.225H113.94C113.819 109.225 113.733 109.34 113.769 109.453L114.243 110.906C114.291 111.051 114.429 111.15 114.585 111.15H116.879C117.473 111.15 117.955 110.68 117.955 110.1V103.625ZM95.085 101.612C95.085 101.757 95.2054 101.875 95.354 101.875H96.4303C96.5789 101.875 96.6993 101.757 96.6993 101.612V98.6375C96.6993 98.4925 96.5789 98.375 96.4303 98.375H95.354C95.2054 98.375 95.085 98.4925 95.085 98.6375V101.612ZM108.046 98.134C108.129 98.0113 108.27 97.9375 108.421 97.9375H109.921C110.136 97.9375 110.264 98.1701 110.146 98.3446L107.595 102.116C107.512 102.239 107.371 102.312 107.22 102.312H105.719C105.505 102.312 105.377 102.08 105.495 101.905L108.046 98.134Z" fill="#C5D4EC" fill-opacity="0.5"/>
<rect x="48" y="127.5" width="20" height="20" rx="4" fill="#C5D4EC" fill-opacity="0.3"/>
<rect x="78" y="131.5" width="150" height="12" rx="4" fill="#C5D4EC" fill-opacity="0.3"/>
<rect x="48" y="155.5" width="20" height="20" rx="4" fill="#C5D4EC" fill-opacity="0.3"/>
<rect x="78" y="159.5" width="150" height="12" rx="4" fill="#C5D4EC" fill-opacity="0.3"/>
</g>
<defs>
<filter id="filter0_bd_2154_507417" x="276.5" y="-19" width="216" height="332" filterUnits="userSpaceOnUse" color-interpolation-filters="sRGB">
<feFlood flood-opacity="0" result="BackgroundImageFix"/>
<feGaussianBlur in="BackgroundImageFix" stdDeviation="25"/>
<feComposite in2="SourceAlpha" operator="in" result="effect1_backgroundBlur_2154_507417"/>
<feColorMatrix in="SourceAlpha" type="matrix" values="0 0 0 0 0 0 0 0 0 0 0 0 0 0 0 0 0 0 127 0" result="hardAlpha"/>
<feOffset dx="12" dy="20"/>
<feGaussianBlur stdDeviation="8"/>
<feComposite in2="hardAlpha" operator="out"/>
<feColorMatrix type="matrix" values="0 0 0 0 0 0 0 0 0 0.227451 0 0 0 0 0.494118 0 0 0 0.06 0"/>
<feBlend mode="normal" in2="effect1_backgroundBlur_2154_507417" result="effect2_dropShadow_2154_507417"/>
<feBlend mode="normal" in="SourceGraphic" in2="effect2_dropShadow_2154_507417" result="shape"/>
</filter>
<filter id="filter1_d_2154_507417" x="320.389" y="35.7778" width="123.778" height="235.778" filterUnits="userSpaceOnUse" color-interpolation-filters="sRGB">
<feFlood flood-opacity="0" result="BackgroundImageFix"/>
<feColorMatrix in="SourceAlpha" type="matrix" values="0 0 0 0 0 0 0 0 0 0 0 0 0 0 0 0 0 0 127 0" result="hardAlpha"/>
<feOffset dx="-2.22222" dy="6.66667"/>
<feGaussianBlur stdDeviation="4.44444"/>
<feComposite in2="hardAlpha" operator="out"/>
<feColorMatrix type="matrix" values="0 0 0 0 0.0624306 0 0 0 0 0.299409 0 0 0 0 0.483333 0 0 0 0.05 0"/>
<feBlend mode="normal" in2="BackgroundImageFix" result="effect1_dropShadow_2154_507417"/>
<feBlend mode="normal" in="SourceGraphic" in2="effect1_dropShadow_2154_507417" result="shape"/>
</filter>
<filter id="filter2_b_2154_507417" x="-51" y="-19" width="408" height="270" filterUnits="userSpaceOnUse" color-interpolation-filters="sRGB">
<feFlood flood-opacity="0" result="BackgroundImageFix"/>
<feGaussianBlur in="BackgroundImageFix" stdDeviation="25"/>
<feComposite in2="SourceAlpha" operator="in" result="effect1_backgroundBlur_2154_507417"/>
<feBlend mode="normal" in="SourceGraphic" in2="effect1_backgroundBlur_2154_507417" result="shape"/>
</filter>
<filter id="filter3_d_2154_507417" x="-3.88889" y="68.7778" width="297.778" height="149.654" filterUnits="userSpaceOnUse" color-interpolation-filters="sRGB">
<feFlood flood-opacity="0" result="BackgroundImageFix"/>
<feColorMatrix in="SourceAlpha" type="matrix" values="0 0 0 0 0 0 0 0 0 0 0 0 0 0 0 0 0 0 127 0" result="hardAlpha"/>
<feOffset dx="6" dy="6.66667"/>
<feGaussianBlur stdDeviation="4.44444"/>
<feComposite in2="hardAlpha" operator="out"/>
<feColorMatrix type="matrix" values="0 0 0 0 0.0624306 0 0 0 0 0.299409 0 0 0 0 0.483333 0 0 0 0.05 0"/>
<feBlend mode="normal" in2="BackgroundImageFix" result="effect1_dropShadow_2154_507417"/>
<feBlend mode="normal" in="SourceGraphic" in2="effect1_dropShadow_2154_507417" result="shape"/>
</filter>
<linearGradient id="paint0_linear_2154_507417" x1="55.5" y1="-96" x2="560" y2="460.5" gradientUnits="userSpaceOnUse">
<stop stop-color="#CEF1FF"/>
<stop offset="1" stop-color="#DECAFF"/>
</linearGradient>
<linearGradient id="paint1_linear_2154_507417" x1="324.03" y1="265.694" x2="562.118" y2="364.919" gradientUnits="userSpaceOnUse">
<stop stop-color="#DFDEFF"/>
<stop offset="1" stop-color="#E4E9FF"/>
</linearGradient>
<linearGradient id="paint2_linear_2154_507417" x1="574.5" y1="302" x2="267" y2="315.5" gradientUnits="userSpaceOnUse">
<stop stop-color="white"/>
<stop offset="1" stop-color="white" stop-opacity="0.4"/>
</linearGradient>
<linearGradient id="paint3_linear_2154_507417" x1="401" y1="92.5" x2="401" y2="135.5" gradientUnits="userSpaceOnUse">
<stop stop-color="white"/>
<stop offset="1" stop-color="white" stop-opacity="0.4"/>
</linearGradient>
<linearGradient id="paint4_linear_2154_507417" x1="365.5" y1="90.5" x2="365.5" y2="104.5" gradientUnits="userSpaceOnUse">
<stop stop-color="white"/>
<stop offset="1" stop-color="white" stop-opacity="0.4"/>
</linearGradient>
<linearGradient id="paint5_linear_2154_507417" x1="24.5" y1="54.5" x2="334.356" y2="95.0968" gradientUnits="userSpaceOnUse">
<stop stop-color="#E1F3FF"/>
<stop offset="1" stop-color="#E4EAFF"/>
</linearGradient>
<clipPath id="clip0_2154_507417">
<rect width="484" height="200" fill="white"/>
</clipPath>
<clipPath id="clip1_2154_507417">
<rect x="348.5" y="82.5" width="72" height="48" fill="white"/>
</clipPath>
</defs>
</svg>
