<svg width="91" height="24" viewBox="0 0 91 24" fill="none" xmlns="http://www.w3.org/2000/svg">
<path fill-rule="evenodd" clip-rule="evenodd" d="M1.47826 -0.000244141C0.961962 -0.000244141 0.483072 0.269126 0.214956 0.71035C-0.0531609 1.15157 -0.0716499 1.70071 0.166182 2.15897L11.0875 23.2025C11.3413 23.6914 11.8459 23.9987 12.3968 23.9998C12.9477 24.0008 13.4534 23.6954 13.7091 23.2074L15.8325 19.154H15.8258L21.0603 9.1748L21.0601 9.17447L24.3174 2.95628H34.8717L26.3769 19.3241L22.028 11.0221L20.3581 14.2057L25.0735 23.2074C25.3292 23.6954 25.8349 24.0008 26.3858 23.9998C26.9367 23.9987 27.4413 23.6914 27.6951 23.2025L38.6164 2.15897C38.8543 1.70071 38.8358 1.15157 38.5677 0.71035C38.2995 0.269126 37.8206 -0.000244141 37.3043 -0.000244141H23.423C22.8809 -0.000244141 22.383 0.296369 22.1246 0.771439H22.1247L21.2711 2.40023L19.3913 5.98876L19.3909 5.98803L17.7218 9.1731L17.7225 9.17447L12.4057 19.3241L3.91095 2.95628H14.4652L16.7536 7.32494L18.4228 4.13987L16.6691 0.792062C16.4139 0.304969 15.9095 -0.000244141 15.3596 -0.000244141H1.47826Z" fill="black"/>
<path fill-rule="evenodd" clip-rule="evenodd" d="M60.1271 12.2049L64.7674 1.04346H67.7809L64.8956 7.98348C65.6024 7.76805 66.3526 7.65217 67.1298 7.65217C71.356 7.65217 74.782 11.0782 74.782 15.3044C74.782 19.5305 71.356 22.9565 67.1298 22.9565C62.9037 22.9565 59.4777 19.5305 59.4777 15.3044C59.4777 14.2017 59.7109 13.1535 60.1307 12.2064L60.1271 12.2049ZM71.9994 15.3044C71.9994 17.9937 69.8192 20.1739 67.1298 20.1739C64.4405 20.1739 62.2603 17.9937 62.2603 15.3044C62.2603 12.615 64.4405 10.4348 67.1298 10.4348C69.8192 10.4348 71.9994 12.615 71.9994 15.3044ZM81.4771 1.04349H80.5481L80.192 1.90164L76.4391 10.9475L76.5302 11L76.5276 11.0039L78.9487 12.4003C79.8363 11.2074 81.2569 10.4346 82.8581 10.4346C85.5474 10.4346 87.7276 12.6148 87.7276 15.3042C87.7276 17.9936 85.5474 20.1737 82.8581 20.1737C81.1152 20.1737 79.5862 19.2581 78.7258 17.8816L76.314 19.2726C77.6562 21.4811 80.0848 22.9564 82.8581 22.9564C87.0842 22.9564 90.5102 19.5304 90.5102 15.3042C90.5102 11.078 87.0842 7.65199 82.8581 7.65199C82.1049 7.65199 81.3771 7.76081 80.6896 7.96357L82.4062 3.8261H89.1622V1.04349H81.4771ZM51.1573 3.82609H43.842V1.04348H55.3202L52.4597 7.95618C56.1954 9.54984 58.0295 13.764 56.7122 17.6397C55.3233 21.7261 50.8846 23.9129 46.7982 22.524C42.8936 21.1968 40.7233 17.0853 41.7496 13.1571L44.4373 13.8786C43.7895 16.4017 45.1862 19.0371 47.6937 19.8894C50.3251 20.7837 53.1833 19.3756 54.0777 16.7442C54.9335 14.2262 53.7485 11.5523 51.3956 10.5279L51.3939 10.5319L51.098 10.4095C51.0674 10.3984 51.0365 10.3876 51.0055 10.3771L51.0073 10.3719L48.8227 9.46799L51.1573 3.82609Z" fill="black"/>
</svg>
