<svg xmlns="http://www.w3.org/2000/svg" width="111" height="24" viewBox="0 0 111 24" fill="none"><desc>WPS logo组合_横向</desc><g clip-path="url(#clip0_21183_981)"><path fill-rule="evenodd" clip-rule="evenodd" d="M16.8078 20.1563H16.8011C16.7946 20.1563 16.788 20.1562 16.7814 20.1561C16.7802 20.156 16.7789 20.156 16.7775 20.156L16.7814 20.1561C16.2264 20.1487 15.6939 19.8416 15.4241 19.3128C15.4238 19.3123 15.4235 19.3117 15.4232 19.3111L13.2769 15.0919L15.0138 11.6805L16.8044 15.2002L20.6237 7.69266L15.6373 7.69266C14.7831 7.69266 14.0905 7.0001 14.0905 6.14579V6.14062C14.0905 5.28631 14.7831 4.59375 15.6373 4.59375H23.1079C23.9621 4.59375 24.6546 5.28631 24.6546 6.14062L24.6547 6.15125C24.6667 6.41011 24.6137 6.67553 24.4878 6.92299L18.1857 19.3111L18.1848 19.3128C17.9156 19.8404 17.385 20.1473 16.8313 20.1561C16.8301 20.156 16.8289 20.156 16.8277 20.1561L16.8313 20.1561C16.8235 20.1562 16.8156 20.1563 16.8078 20.1563Z" fill="url(#paint0_linear_21183_981)"/><path fill-rule="evenodd" clip-rule="evenodd" d="M15.9033 4.59375L22.2897 4.59375L20.6075 7.69266H15.9033V4.59375Z" fill="url(#paint1_linear_21183_981)"/><path fill-rule="evenodd" clip-rule="evenodd" d="M18.5774 4.59375C18.2727 4.60549 17.986 4.6923 17.7175 4.8542C17.4489 5.01609 17.218 5.28184 17.0248 5.65144L17.029 5.64338L10.0765 19.3099C9.80289 19.8478 9.25864 20.1571 8.69449 20.1562C8.13032 20.1571 7.58606 19.8478 7.3124 19.3099L1.01269 6.92655C0.857005 6.62051 0.812571 6.28699 0.864389 5.97224C0.949303 5.19695 1.60535 4.59375 2.40206 4.59375H10.4653C11.109 4.59375 11.6609 4.98752 11.8939 5.54769L12.2227 6.19409L10.4857 9.60562L9.51255 7.69265H4.87496L8.69446 15.2007L13.5952 5.5673C13.8991 4.96995 14.5125 4.59375 15.1827 4.59375H18.5774Z" fill="url(#paint2_linear_21183_981)"/><path fill-rule="evenodd" clip-rule="evenodd" d="M18.5774 4.59375C18.2727 4.60549 17.9861 4.6923 17.7175 4.8542C17.4597 5.00962 17.2366 5.26075 17.0482 5.60759L17.0274 5.64637L12.5935 14.3622L9.90576 12.8198L13.5952 5.5673C13.8991 4.96995 14.5126 4.59375 15.1828 4.59375H18.5774Z" fill="url(#paint3_linear_21183_981)"/></g><path d="M80.6837 7.79573C80.411 8.24332 80.2746 8.88274 80.2746 9.71398V10.495H78.4486V11.8103H80.2746V18.1953H81.9692V11.8103H84.1313V10.495H81.9692V9.71398C81.9692 9.23898 82.0277 8.87817 82.1445 8.63154C82.2614 8.38491 82.4805 8.22049 82.8019 8.13828C83.133 8.04693 83.6297 8.02866 84.292 8.08347V6.80921C83.3083 6.70873 82.5292 6.73614 81.9546 6.89142C81.38 7.03757 80.9564 7.33901 80.6837 7.79573Z" fill="#030303"/><path d="M86.78 9.71398C86.78 8.88274 86.9163 8.24332 87.189 7.79573C87.4617 7.33901 87.8853 7.03757 88.4599 6.89142C89.0345 6.73614 89.8136 6.70873 90.7973 6.80921V8.08347C90.135 8.02866 89.6384 8.04693 89.3072 8.13828C88.9858 8.22049 88.7667 8.38491 88.6498 8.63154C88.533 8.87817 88.4745 9.23898 88.4745 9.71398V10.495H90.6366V11.8103H88.4745V18.1953H86.78V11.8103H84.9539V10.495H86.78V9.71398Z" fill="#030303"/><path d="M93.7544 18.1954V10.495H92.0891V18.1954H93.7544Z" fill="#030303"/><path d="M92.1475 8.72746C92.3618 8.92842 92.6199 9.0289 92.9218 9.0289C93.2334 9.0289 93.4964 8.92842 93.7106 8.72746C93.9249 8.51737 94.032 8.27074 94.032 7.98757C94.032 7.7044 93.9249 7.46234 93.7106 7.26138C93.4964 7.06042 93.2334 6.95994 92.9218 6.95994C92.6199 6.95994 92.3618 7.06042 92.1475 7.26138C91.9333 7.46234 91.8261 7.7044 91.8261 7.98757C91.8261 8.27074 91.9333 8.51737 92.1475 8.72746Z" fill="#030303"/><path d="M101.77 17.8665C101.332 18.0675 100.908 18.2045 100.499 18.2776C100.1 18.3506 99.6473 18.3826 99.1409 18.3735C98.3812 18.3552 97.7141 18.1862 97.1395 17.8665C96.5747 17.5559 96.1364 17.0992 95.8247 16.4963C95.5131 15.8935 95.3573 15.1627 95.3573 14.3041C95.3573 13.4911 95.5228 12.7832 95.854 12.1803C96.1851 11.5774 96.6428 11.1161 97.2272 10.7964C97.8115 10.4767 98.464 10.3169 99.1847 10.3169C99.6619 10.3169 100.115 10.3625 100.543 10.4539C100.972 10.5361 101.356 10.6685 101.697 10.8512V12.2214C101.318 12.0113 100.938 11.8697 100.558 11.7967C100.178 11.7144 99.7739 11.6779 99.3454 11.687C98.6734 11.6962 98.128 11.9291 97.7092 12.3858C97.3002 12.8426 97.0957 13.482 97.0957 14.3041C97.0957 15.1444 97.2953 15.793 97.6946 16.2497C98.1037 16.6973 98.6637 16.9394 99.3746 16.9759C99.7836 16.9942 100.168 16.9668 100.529 16.8937C100.899 16.8206 101.313 16.679 101.77 16.4689V17.8665Z" fill="#030303"/><path fill-rule="evenodd" clip-rule="evenodd" d="M106.581 18.3735C105.734 18.3735 105.009 18.2136 104.405 17.8939C103.801 17.5833 103.338 17.1266 103.017 16.5237C102.696 15.9209 102.535 15.1901 102.535 14.3315C102.535 13.5002 102.691 12.7832 103.002 12.1803C103.314 11.5774 103.757 11.1161 104.332 10.7964C104.916 10.4767 105.607 10.3169 106.406 10.3169C107.234 10.3169 107.93 10.4904 108.495 10.8375C109.06 11.1755 109.464 11.6779 109.708 12.3447C109.951 13.0115 110.019 13.8154 109.912 14.7562H104.246C104.306 15.4726 104.529 16.0161 104.916 16.3867C105.374 16.816 106.051 17.0307 106.947 17.0307C107.404 17.0307 107.857 16.985 108.305 16.8937C108.763 16.8023 109.216 16.6699 109.664 16.4963V17.8254C109.196 18.0081 108.704 18.1451 108.188 18.2365C107.682 18.3278 107.146 18.3735 106.581 18.3735ZM104.814 12.2899C104.538 12.6136 104.359 13.0521 104.279 13.6053H108.389C108.361 13.0416 108.216 12.5986 107.955 12.2762C107.584 11.8195 107.054 11.5911 106.362 11.5911C105.719 11.5911 105.203 11.8241 104.814 12.2899Z" fill="#030303"/><path fill-rule="evenodd" clip-rule="evenodd" d="M72.1756 18.3461C71.153 18.3461 70.2278 18.136 69.4 17.7158C68.5819 17.3047 67.9343 16.6653 67.4571 15.7976C66.9799 14.9298 66.7413 13.8565 66.7413 12.5776C66.7413 11.2988 66.9799 10.2301 67.4571 9.37144C67.9343 8.50367 68.5819 7.85969 69.4 7.4395C70.2278 7.01932 71.153 6.80922 72.1756 6.80922C73.1982 6.80922 74.1185 7.01932 74.9366 7.4395C75.7644 7.85969 76.4169 8.50367 76.8941 9.37144C77.3811 10.2301 77.6246 11.2988 77.6246 12.5776C77.6246 13.8565 77.3811 14.9298 76.8941 15.7976C76.4169 16.6653 75.7644 17.3047 74.9366 17.7158C74.1185 18.136 73.1982 18.3461 72.1756 18.3461ZM72.161 16.8252C72.8427 16.8252 73.4465 16.679 73.9724 16.3867C74.5081 16.0853 74.9317 15.6194 75.2434 14.9891C75.555 14.3497 75.7109 13.5459 75.7109 12.5776C75.7109 11.6094 75.555 10.8101 75.2434 10.1798C74.9317 9.54043 74.5081 9.07457 73.9724 8.78227C73.4465 8.48083 72.8427 8.33011 72.161 8.33011C71.489 8.33011 70.8901 8.48083 70.3642 8.78227C69.8383 9.07457 69.4195 9.54043 69.1078 10.1798C68.8059 10.8101 68.655 11.6094 68.655 12.5776C68.655 13.5459 68.8059 14.3497 69.1078 14.9891C69.4195 15.6194 69.8383 16.0853 70.3642 16.3867C70.8901 16.679 71.489 16.8252 72.161 16.8252Z" fill="#030303"/><path d="M58.3177 8.39861C59.5545 8.39861 60.7427 8.58587 61.8821 8.96038V7.37098C61.3075 7.19743 60.7232 7.06954 60.1291 6.98733C59.535 6.90512 58.9264 6.86402 58.3031 6.86402C57.446 6.86402 56.6961 6.9919 56.0534 7.24767C55.4203 7.50343 54.9334 7.85511 54.5925 8.3027C54.2614 8.75029 54.0958 9.25725 54.0958 9.82359C54.0958 10.3443 54.2127 10.8101 54.4464 11.2212C54.6899 11.6322 55.0892 12.0067 55.6443 12.3447C56.1995 12.6735 56.9493 12.9704 57.894 13.2353C58.5758 13.418 59.1065 13.6098 59.4864 13.8108C59.8662 14.0117 60.1291 14.2218 60.2752 14.4411C60.4213 14.6603 60.4943 14.9069 60.4943 15.181C60.4943 15.4824 60.4067 15.7519 60.2314 15.9894C60.0561 16.2177 59.7883 16.4004 59.4279 16.5374C59.0773 16.6653 58.6537 16.7293 58.157 16.7293C57.4947 16.7293 56.7838 16.6562 56.0241 16.51C55.2645 16.3547 54.5828 16.1492 53.979 15.8934V17.5103C54.5633 17.7569 55.2158 17.9487 55.9365 18.0857C56.6572 18.2319 57.3925 18.305 58.1424 18.305C59.0481 18.305 59.8223 18.1725 60.4651 17.9076C61.1176 17.6518 61.6143 17.291 61.9552 16.8252C62.296 16.3502 62.4665 15.8067 62.4665 15.1947C62.4665 14.3269 62.1743 13.6098 61.59 13.0435C61.0056 12.4772 60.0415 12.0296 58.6975 11.7007C57.9573 11.5272 57.3925 11.349 57.0029 11.1664C56.6134 10.9745 56.3455 10.7736 56.1995 10.5635C56.0534 10.3534 55.9803 10.1068 55.9803 9.82359C55.9803 9.39427 56.1848 9.05172 56.5939 8.79596C57.0029 8.53106 57.5775 8.39861 58.3177 8.39861Z" fill="#030303"/><path fill-rule="evenodd" clip-rule="evenodd" d="M46.2532 18.1816V14.7151H47.5826C48.7123 14.7151 49.657 14.5644 50.4167 14.2629C51.186 13.9524 51.7606 13.5048 52.1405 12.9202C52.53 12.3356 52.7248 11.6277 52.7248 10.7964C52.7248 9.54499 52.2817 8.59044 51.3954 7.93276C50.5189 7.27507 49.248 6.94623 47.5826 6.94623H44.4418V18.1816H46.2532ZM47.5826 8.45342H46.2532V13.2079H47.5826C48.7221 13.2079 49.5596 13.007 50.0953 12.605C50.6407 12.2031 50.9133 11.6048 50.9133 10.8101C50.9133 10.0611 50.6358 9.48105 50.0807 9.07C49.5353 8.65895 48.7026 8.45342 47.5826 8.45342Z" fill="#030303"/><path d="M32.9515 15.7754L30.8532 6.94623H28.9688L31.9197 18.1953H33.9648L35.9281 9.80664L38.0114 18.1953H40.0858L42.949 6.94623H41.1814L39.0218 15.8869L36.8281 6.95993H35.0605L32.9515 15.7754Z" fill="#030303"/><defs><linearGradient id="paint0_linear_21183_981" x1="18.9666" y1="4.59375" x2="18.9666" y2="20.1563" gradientUnits="userSpaceOnUse"><stop stop-color="#FF1C1F"/><stop offset="1" stop-color="#FF4A04"/></linearGradient><linearGradient id="paint1_linear_21183_981" x1="16.9444" y1="5.88281" x2="20.6005" y2="7.69249" gradientUnits="userSpaceOnUse"><stop stop-color="#BD0000"/><stop offset="0.770833" stop-color="#BD0000" stop-opacity="0"/></linearGradient><linearGradient id="paint2_linear_21183_981" x1="9.71056" y1="4.59375" x2="9.71056" y2="20.1562" gradientUnits="userSpaceOnUse"><stop stop-color="#FF1C1F"/><stop offset="1" stop-color="#FF4A04"/></linearGradient><linearGradient id="paint3_linear_21183_981" x1="14.2416" y1="4.59375" x2="14.2416" y2="11.3906" gradientUnits="userSpaceOnUse"><stop stop-color="#FF9825"/><stop offset="1" stop-color="#FF9825" stop-opacity="0"/></linearGradient><clipPath id="clip0_21183_981"><rect width="24" height="24" fill="white" transform="translate(0.75)"/></clipPath></defs></svg>